<svg xmlns="http://www.w3.org/2000/svg" width="1200" height="520" viewBox="0 0 1200 520">
  <rect width="1200" height="520" fill="#0b1320"/>
  <g font-family="Arial" fill="#e5f5ff" font-size="16">
    <rect x="40" y="60" width="280" height="130" rx="12" fill="#15213a" stroke="#6ee7b7"/>
    <text x="60" y="95">Existing Systems</text>
    <text x="60" y="125">• Peloton WellView</text>
    <text x="60" y="150">• Halliburton Sapphire</text>
  </g>
  <g stroke="#00e6c3"><line x1="320" y1="125" x2="520" y2="125" stroke-width="3"/>
    <polygon points="520,125 510,119 510,131" fill="#00e6c3"/></g>
  <g font-family="Arial" fill="#e5f5ff" font-size="16">
    <rect x="520" y="60" width="280" height="130" rx="12" fill="#15213a" stroke="#22d3ee"/>
    <text x="540" y="100">Read-only Bridges</text>
    <text x="540" y="130">CSV / API Adapters</text>
  </g>
  <g stroke="#00e6c3"><line x1="800" y1="125" x2="1040" y2="125" stroke-width="3"/>
    <polygon points="1040,125 1030,119 1030,131" fill="#00e6c3"/></g>
  <g font-family="Arial" fill="#e5f5ff" font-size="16">
    <rect x="380" y="230" width="240" height="120" rx="12" fill="#15213a" stroke="#34d399"/>
    <text x="400" y="270">Planner</text><text x="400" y="295">WBS • Risk • Costs</text>
    <rect x="640" y="360" width="240" height="120" rx="12" fill="#15213a" stroke="#22d3ee"/>
    <text x="660" y="400">Performer</text><text x="660" y="425">Runbook • Deviations</text>
    <rect x="900" y="230" width="240" height="120" rx="12" fill="#15213a" stroke="#818cf8"/>
    <text x="920" y="270">Analyzer</text><text x="920" y="295">Patterns • KPIs • ROI</text>
  </g>
  <g stroke="#6ee7b7">
    <path d="M500 190 C560 210, 680 210, 940 190" fill="none" stroke-width="2"/>
    <path d="M500 320 C560 300, 680 300, 940 320" fill="none" stroke-width="2"/>
    <path d="M500 260 C560 300, 640 360, 700 360" fill="none" stroke-width="2"/>
    <path d="M940 260 C900 300, 780 360, 700 360" fill="none" stroke-width="2"/>
  </g>
  <g font-family="Arial" fill="#e5f5ff" font-size="13">
    <text x="60" y="460">Optional writebacks: summaries/outcomes only — source-of-truth remains in existing systems.</text>
  </g>
</svg>